<svg xmlns="http://www.w3.org/2000/svg" viewBox="0 0 32 32" role="img" aria-label="Tech4Change">
  <defs>
    <linearGradient id="bolt-bg" x1="0%" y1="0%" x2="100%" y2="100%">
      <stop offset="0%" stop-color="#DC2626" />
      <stop offset="100%" stop-color="#B91C1C" />
    </linearGradient>
  </defs>
  <rect width="32" height="32" rx="7" fill="url(#bolt-bg)" />
  <!-- Lucide Zap path (same as site navbar), scaled to fit -->
  <g transform="translate(5 5) scale(0.9167)">
    <path
      fill="#060B18"
      d="M4 14a1 1 0 0 1-.78-1.63l9.9-10.2a.5.5 0 0 1 .86.46l-1.92 6.02A1 1 0 0 0 13 10h7a1 1 0 0 1 .78 1.63l-9.9 10.2a.5.5 0 0 1-.86-.46l1.92-6.02A1 1 0 0 0 11 14z"
    />
  </g>
</svg>
